<svg height="1198" width="720" xmlns="http://www.w3.org/2000/svg">
<rect height="1198" fill="#555" width="720"></rect>
<text fill="#7f7" font-family="Courier New" font-size="12" xml:space="preserve">
<tspan x="10" y="26">15 megabytes installed</tspan>
<tspan x="10" y="42"></tspan>
<tspan x="10" y="58">node_modules</tspan>
<tspan x="10" y="74">└─┬ youtube-playlist-dl@1.1.0 </tspan>
<tspan x="10" y="90">  ├─┬ async@2.3.0 </tspan>
<tspan x="10" y="106">  │ └── lodash@4.17.4 </tspan>
<tspan x="10" y="122">  ├── fs@0.0.1-security </tspan>
<tspan x="10" y="138">  ├─┬ path@0.12.7 </tspan>
<tspan x="10" y="154">  │ ├── process@0.11.9 </tspan>
<tspan x="10" y="170">  │ └─┬ util@0.10.3 </tspan>
<tspan x="10" y="186">  │   └── inherits@2.0.1 </tspan>
<tspan x="10" y="202">  ├─┬ youtube-dl@1.11.1 </tspan>
<tspan x="10" y="218">  │ ├─┬ mkdirp@0.5.1 </tspan>
<tspan x="10" y="234">  │ │ └── minimist@0.0.8 </tspan>
<tspan x="10" y="250">  │ ├─┬ request@2.81.0 </tspan>
<tspan x="10" y="266">  │ │ ├── aws-sign2@0.6.0 </tspan>
<tspan x="10" y="282">  │ │ ├── aws4@1.6.0 </tspan>
<tspan x="10" y="298">  │ │ ├── caseless@0.12.0 </tspan>
<tspan x="10" y="314">  │ │ ├─┬ combined-stream@1.0.5 </tspan>
<tspan x="10" y="330">  │ │ │ └── delayed-stream@1.0.0 </tspan>
<tspan x="10" y="346">  │ │ ├── extend@3.0.0 </tspan>
<tspan x="10" y="362">  │ │ ├── forever-agent@0.6.1 </tspan>
<tspan x="10" y="378">  │ │ ├─┬ form-data@2.1.4 </tspan>
<tspan x="10" y="394">  │ │ │ └── asynckit@0.4.0 </tspan>
<tspan x="10" y="410">  │ │ ├─┬ har-validator@4.2.1 </tspan>
<tspan x="10" y="426">  │ │ │ ├─┬ ajv@4.11.7 </tspan>
<tspan x="10" y="442">  │ │ │ │ ├── co@4.6.0 </tspan>
<tspan x="10" y="458">  │ │ │ │ └─┬ json-stable-stringify@1.0.1 </tspan>
<tspan x="10" y="474">  │ │ │ │   └── jsonify@0.0.0 </tspan>
<tspan x="10" y="490">  │ │ │ └── har-schema@1.0.5 </tspan>
<tspan x="10" y="506">  │ │ ├─┬ hawk@3.1.3 </tspan>
<tspan x="10" y="522">  │ │ │ ├── boom@2.10.1 </tspan>
<tspan x="10" y="538">  │ │ │ ├── cryptiles@2.0.5 </tspan>
<tspan x="10" y="554">  │ │ │ ├── hoek@2.16.3 </tspan>
<tspan x="10" y="570">  │ │ │ └── sntp@1.0.9 </tspan>
<tspan x="10" y="586">  │ │ ├─┬ http-signature@1.1.1 </tspan>
<tspan x="10" y="602">  │ │ │ ├── assert-plus@0.2.0 </tspan>
<tspan x="10" y="618">  │ │ │ ├─┬ jsprim@1.4.0 </tspan>
<tspan x="10" y="634">  │ │ │ │ ├── assert-plus@1.0.0 </tspan>
<tspan x="10" y="650">  │ │ │ │ ├── extsprintf@1.0.2 </tspan>
<tspan x="10" y="666">  │ │ │ │ ├── json-schema@0.2.3 </tspan>
<tspan x="10" y="682">  │ │ │ │ └── verror@1.3.6 </tspan>
<tspan x="10" y="698">  │ │ │ └─┬ sshpk@1.13.0 </tspan>
<tspan x="10" y="714">  │ │ │   ├── asn1@0.2.3 </tspan>
<tspan x="10" y="730">  │ │ │   ├── assert-plus@1.0.0 </tspan>
<tspan x="10" y="746">  │ │ │   ├── bcrypt-pbkdf@1.0.1 </tspan>
<tspan x="10" y="762">  │ │ │   ├─┬ dashdash@1.14.1 </tspan>
<tspan x="10" y="778">  │ │ │   │ └── assert-plus@1.0.0 </tspan>
<tspan x="10" y="794">  │ │ │   ├── ecc-jsbn@0.1.1 </tspan>
<tspan x="10" y="810">  │ │ │   ├─┬ getpass@0.1.6 </tspan>
<tspan x="10" y="826">  │ │ │   │ └── assert-plus@1.0.0 </tspan>
<tspan x="10" y="842">  │ │ │   ├── jodid25519@1.0.2 </tspan>
<tspan x="10" y="858">  │ │ │   ├── jsbn@0.1.1 </tspan>
<tspan x="10" y="874">  │ │ │   └── tweetnacl@0.14.5 </tspan>
<tspan x="10" y="890">  │ │ ├── is-typedarray@1.0.0 </tspan>
<tspan x="10" y="906">  │ │ ├── isstream@0.1.2 </tspan>
<tspan x="10" y="922">  │ │ ├── json-stringify-safe@5.0.1 </tspan>
<tspan x="10" y="938">  │ │ ├─┬ mime-types@2.1.15 </tspan>
<tspan x="10" y="954">  │ │ │ └── mime-db@1.27.0 </tspan>
<tspan x="10" y="970">  │ │ ├── oauth-sign@0.8.2 </tspan>
<tspan x="10" y="986">  │ │ ├── performance-now@0.2.0 </tspan>
<tspan x="10" y="1002">  │ │ ├── qs@6.4.0 </tspan>
<tspan x="10" y="1018">  │ │ ├── safe-buffer@5.0.1 </tspan>
<tspan x="10" y="1034">  │ │ ├── stringstream@0.0.5 </tspan>
<tspan x="10" y="1050">  │ │ ├─┬ tough-cookie@2.3.2 </tspan>
<tspan x="10" y="1066">  │ │ │ └── punycode@1.4.1 </tspan>
<tspan x="10" y="1082">  │ │ ├── tunnel-agent@0.6.0 </tspan>
<tspan x="10" y="1098">  │ │ └── uuid@3.0.1 </tspan>
<tspan x="10" y="1114">  │ └─┬ streamify@0.2.8 </tspan>
<tspan x="10" y="1130">  │   └─┬ hashish@0.0.4 </tspan>
<tspan x="10" y="1146">  │     └── traverse@0.6.6 </tspan>
<tspan x="10" y="1162">  └─┬ youtube-feeds@2.4.1 </tspan>
<tspan x="10" y="1178">    └── node-xml2json@1.0.0</tspan>
</text>
</svg>
